<svg xmlns="http://www.w3.org/2000/svg" viewBox="0 0 2228.833 2073.333" width="64" height="60">
  <!-- MS Teams logo -->
  <path fill="#5059C9" d="M1554.637 777.5h575.713c54.391 0 98.483 44.092 98.483 98.483v524.398c0 199.901-162.051 361.952-361.952 361.952h-1.711c-199.901.028-361.975-162-362.004-361.901V828.971c.001-28.427 23.045-51.471 51.471-51.471z"/>
  <circle fill="#5059C9" cx="1943.75" cy="440.583" r="233.25"/>
  <circle fill="#7B83EB" cx="1218.083" cy="336.917" r="336.917"/>
  <path fill="#7B83EB" d="M1667.323 777.5H717.01c-53.743 1.33-96.257 45.931-95.01 99.676v598.105c-7.505 322.519 247.657 590.16 570.167 598.053 322.51-7.893 577.671-275.534 570.167-598.053V877.176c1.245-53.745-41.268-98.346-95.011-99.676z"/>
  <path opacity=".1" d="M1244 777.5v838.145c-.258 38.435-23.549 72.964-59.09 87.598a91.856 91.856 0 0 1-35.765 7.257H667.613c-6.738-17.105-12.958-34.21-18.142-51.833a631.287 631.287 0 0 1-27.472-183.49V877.02c-1.246-53.659 41.198-98.19 94.855-99.52H1244z"/>
  <path opacity=".2" d="M1192.167 777.5v889.978a91.702 91.702 0 0 1-7.257 35.765c-14.634 35.541-49.163 58.833-87.598 59.09H691.975c-8.812-17.105-17.105-34.21-24.362-51.833-7.257-17.623-12.958-34.21-18.142-51.833a631.287 631.287 0 0 1-27.472-183.49V877.02c-1.246-53.659 41.198-98.19 94.855-99.52h475.313z"/>
  <path opacity=".2" d="M1192.167 777.5v786.312c-.395 52.223-42.632 94.46-94.855 94.855h-447.84A631.287 631.287 0 0 1 622 1475.177V877.02c-1.246-53.659 41.198-98.19 94.855-99.52h475.312z"/>
  <path opacity=".2" d="M1140.333 777.5v786.312c-.395 52.223-42.632 94.46-94.855 94.855H649.472A631.287 631.287 0 0 1 622 1475.177V877.02c-1.246-53.659 41.198-98.19 94.855-99.52h423.478z"/>
  <path opacity=".1" d="M1244 509.522v163.275a310.242 310.242 0 0 1-33.43 1.814 310.242 310.242 0 0 1-33.43-1.814 306.719 306.719 0 0 1-67.377-13.321c-55.306-18.205-104.732-50.69-143.426-94.231-38.694-43.542-65.767-96.35-78.574-153.181h262.98c53.716.207 97.71 44.14 93.827 97.458z"/>
  <path opacity=".2" d="M1192.167 561.355v111.442c-55.306-18.205-104.732-50.69-143.426-94.231-38.694-43.542-65.767-96.35-78.574-153.181h128.144c53.676.26 97.646 44.298 93.856 97.97z"/>
  <path opacity=".2" d="M1192.167 561.355v111.442c-55.306-18.205-104.732-50.69-143.426-94.231-38.694-43.542-65.767-96.35-78.574-153.181h128.144c53.676.26 97.646 44.298 93.856 97.97z"/>
  <path opacity=".2" d="M1140.333 561.355v105.95c-111.27-35.194-195.68-126.471-217.26-235.82h123.404c53.676.26 97.646 44.298 93.856 97.97z"/>
  <linearGradient id="a" gradientUnits="userSpaceOnUse" x1="198.099" y1="1683.0726" x2="942.2344" y2="394.2607" gradientTransform="matrix(1 0 0 -1 0 2075.333)">
    <stop offset="0" stop-color="#5a62c3"/>
    <stop offset=".5" stop-color="#4d55bd"/>
    <stop offset="1" stop-color="#3940ab"/>
  </linearGradient>
  <path fill="url(#a)" d="M95.01 425.395H1045.31c52.473 0 95.01 42.538 95.01 95.01v950.302c0 52.473-42.538 95.01-95.01 95.01H95.01c-52.473 0-95.01-42.538-95.01-95.01V520.406c0-52.472 42.538-95.011 95.01-95.011z"/>
  <path fill="#FFF" d="M820.211 787.5h-190.11v517.712H509.126V787.5H320.11V688.32H820.21V787.5z"/>
</svg>
