<svg width="24" height="24" viewBox="0 0 24 24" fill="none" xmlns="http://www.w3.org/2000/svg">
<path d="M20.8774 2.82559L21.0303 2.96997L21.1747 3.12294C22.426 4.52817 22.3779 6.68308 21.0303 8.03063L9.062 19.999C8.78513 20.2758 8.44079 20.4757 8.06303 20.5787L2.94734 21.9739C2.38746 22.1266 1.87373 21.6128 2.02643 21.053L3.42161 15.9373C3.52464 15.5595 3.72447 15.2152 4.00134 14.9383L15.9697 2.96997C17.3172 1.62242 19.4721 1.57429 20.8774 2.82559ZM15.0002 6.06088L5.062 15.999C4.96971 16.0913 4.9031 16.206 4.86876 16.332L3.81891 20.1814L7.66835 19.1315C7.79427 19.0972 7.90905 19.0306 8.00134 18.9383L17.9392 8.99988L15.0002 6.06088ZM6.525 10.9999L5.025 12.4999L2.75 12.5003C2.33579 12.5003 2 12.1645 2 11.7503C2 11.3361 2.33579 11.0003 2.75 11.0003L6.525 10.9999ZM10.525 6.99988L9.025 8.49988L2.75 8.5003C2.33579 8.5003 2 8.16452 2 7.7503C2 7.33609 2.33579 7.0003 2.75 7.0003L10.525 6.99988ZM17.0303 4.03063L16.0602 4.99987L18.9992 7.93988L19.9697 6.96997C20.7813 6.1583 20.7813 4.84231 19.9697 4.03063C19.158 3.21896 17.842 3.21896 17.0303 4.03063ZM14.525 2.99988L13.025 4.49987L2.75 4.5003C2.33579 4.5003 2 4.16452 2 3.7503C2 3.33609 2.33579 3.0003 2.75 3.0003L14.525 2.99988Z" fill="#242424"/>
</svg>
